<?xml version="1.0" standalone="no"?>
<!DOCTYPE svg PUBLIC "-//W3C//DTD SVG 20010904//EN"
 "http://www.w3.org/TR/2001/REC-SVG-20010904/DTD/svg10.dtd">
<svg version="1.0" xmlns="http://www.w3.org/2000/svg"
 width="753.000000pt" height="319.000000pt" viewBox="0 0 753.000000 319.000000"
 preserveAspectRatio="xMidYMid meet">

<g transform="translate(0.000000,319.000000) scale(0.100000,-0.100000)"
fill="#FFF" stroke="none">
<path d="M3140 2684 c-36 -7 -87 -13 -115 -14 -178 -2 -354 -107 -425 -255
-40 -82 -61 -199 -58 -315 l3 -95 122 -3 c209 -5 313 31 429 146 79 79 103
152 133 405 19 169 29 155 -89 131z"/>
<path d="M1742 2155 c-220 -48 -399 -222 -457 -445 -23 -86 -23 -253 -1 -340
51 -200 194 -359 386 -427 145 -51 371 -42 505 21 127 59 253 196 289 314 l7
22 -140 0 -139 0 -22 -35 c-63 -101 -202 -156 -341 -134 -156 25 -263 129
-299 290 -18 81 -9 230 19 301 31 80 104 157 183 194 56 26 73 29 163 29 89
-1 106 -4 151 -27 56 -30 104 -72 131 -118 l17 -30 138 0 c109 0 138 3 138 13
0 8 -14 43 -32 78 -40 82 -151 193 -235 237 -128 67 -310 90 -461 57z"/>
<path d="M3040 1909 c-254 -33 -411 -227 -409 -504 1 -272 156 -461 409 -497
221 -33 419 62 509 242 l32 65 -129 3 -129 3 -49 -49 c-38 -39 -61 -52 -103
-62 -68 -16 -142 -1 -199 40 -43 31 -92 117 -92 162 l0 28 359 0 358 0 6 43
c7 51 -7 169 -26 226 -23 64 -78 150 -122 188 -104 90 -262 133 -415 112z
m173 -212 c72 -31 136 -113 137 -174 l0 -23 -236 0 -236 0 7 33 c13 61 53 115
108 147 44 25 63 30 120 30 37 0 82 -6 100 -13z"/>
<path d="M4860 1909 c-253 -33 -410 -224 -410 -499 0 -162 43 -275 141 -372
73 -73 157 -114 267 -130 221 -32 421 63 511 243 l32 64 -130 3 -130 3 -48
-49 c-38 -40 -59 -52 -102 -62 -109 -26 -221 26 -267 123 -13 29 -24 64 -24
80 l0 27 360 0 360 0 0 94 c0 117 -25 202 -83 288 -96 139 -283 213 -477 187z
m173 -212 c72 -31 136 -113 137 -174 l0 -23 -236 0 -236 0 6 32 c12 59 54 116
109 148 44 25 63 30 120 30 37 0 82 -6 100 -13z"/>
<path d="M5886 1908 c-217 -27 -345 -189 -293 -369 30 -101 106 -153 317 -212
193 -55 230 -76 230 -134 0 -35 -49 -81 -102 -95 -91 -23 -206 27 -224 98 -6
24 -8 24 -130 24 -122 0 -124 0 -124 -22 0 -41 56 -142 100 -182 80 -72 205
-116 329 -116 68 0 178 23 221 45 95 49 160 148 160 246 0 145 -72 222 -265
280 -55 17 -130 39 -167 51 -82 25 -118 57 -118 105 0 66 65 101 171 91 62 -6
98 -31 124 -86 l20 -41 113 -1 c111 0 112 0 112 24 0 51 -34 129 -78 178 -88
97 -226 138 -396 116z"/>
<path d="M4223 1896 c-53 -17 -120 -65 -155 -113 l-28 -37 0 77 0 77 -125 0
-125 0 0 -490 0 -490 125 0 124 0 3 298 c3 268 5 301 22 335 30 61 82 89 187
101 l89 10 0 123 0 123 -37 -1 c-21 0 -57 -6 -80 -13z"/>
</g>
</svg>
