<svg width="312" height="60" viewBox="0 0 312 60" fill="none" xmlns="http://www.w3.org/2000/svg">
<path d="M106.2 28.5714C106.2 26.2171 106.726 24.1143 107.777 22.2628C108.851 20.3886 110.303 18.9371 112.131 17.9086C113.983 16.8571 116.051 16.3314 118.337 16.3314C121.011 16.3314 123.354 17.0171 125.366 18.3886C127.377 19.76 128.783 21.6571 129.583 24.08H124.063C123.514 22.9371 122.737 22.08 121.731 21.5086C120.749 20.9371 119.606 20.6514 118.303 20.6514C116.909 20.6514 115.663 20.9828 114.566 21.6457C113.491 22.2857 112.646 23.2 112.029 24.3886C111.434 25.5771 111.137 26.9714 111.137 28.5714C111.137 30.1486 111.434 31.5428 112.029 32.7543C112.646 33.9428 113.491 34.8686 114.566 35.5314C115.663 36.1714 116.909 36.4914 118.303 36.4914C119.606 36.4914 120.749 36.2057 121.731 35.6343C122.737 35.04 123.514 34.1714 124.063 33.0286H129.583C128.783 35.4743 127.377 37.3828 125.366 38.7543C123.377 40.1028 121.034 40.7771 118.337 40.7771C116.051 40.7771 113.983 40.2628 112.131 39.2343C110.303 38.1828 108.851 36.7314 107.777 34.88C106.726 33.0286 106.2 30.9257 106.2 28.5714ZM151.34 30.6628C151.34 31.3486 151.294 31.9657 151.203 32.5143H137.317C137.431 33.8857 137.911 34.96 138.757 35.7371C139.603 36.5143 140.643 36.9028 141.877 36.9028C143.66 36.9028 144.928 36.1371 145.683 34.6057H150.86C150.311 36.4343 149.26 37.9428 147.706 39.1314C146.151 40.2971 144.243 40.88 141.98 40.88C140.151 40.88 138.506 40.48 137.043 39.68C135.603 38.8571 134.471 37.7028 133.648 36.2171C132.848 34.7314 132.448 33.0171 132.448 31.0743C132.448 29.1086 132.848 27.3828 133.648 25.8971C134.448 24.4114 135.568 23.2686 137.008 22.4686C138.448 21.6686 140.106 21.2686 141.98 21.2686C143.786 21.2686 145.397 21.6571 146.814 22.4343C148.254 23.2114 149.363 24.32 150.14 25.76C150.94 27.1771 151.34 28.8114 151.34 30.6628ZM146.368 29.2914C146.346 28.0571 145.9 27.0743 145.031 26.3428C144.163 25.5886 143.1 25.2114 141.843 25.2114C140.654 25.2114 139.648 25.5771 138.826 26.3086C138.026 27.0171 137.534 28.0114 137.351 29.2914H146.368ZM159.643 24.5257C160.261 23.52 161.061 22.7314 162.043 22.16C163.049 21.5886 164.192 21.3028 165.472 21.3028V26.3428H164.203C162.695 26.3428 161.552 26.6971 160.775 27.4057C160.021 28.1143 159.643 29.3486 159.643 31.1086V40.5714H154.843V21.5771H159.643V24.5257ZM186.362 30.6628C186.362 31.3486 186.316 31.9657 186.225 32.5143H172.339C172.454 33.8857 172.934 34.96 173.779 35.7371C174.625 36.5143 175.665 36.9028 176.899 36.9028C178.682 36.9028 179.951 36.1371 180.705 34.6057H185.882C185.334 36.4343 184.282 37.9428 182.728 39.1314C181.174 40.2971 179.265 40.88 177.002 40.88C175.174 40.88 173.528 40.48 172.065 39.68C170.625 38.8571 169.494 37.7028 168.671 36.2171C167.871 34.7314 167.471 33.0171 167.471 31.0743C167.471 29.1086 167.871 27.3828 168.671 25.8971C169.471 24.4114 170.591 23.2686 172.031 22.4686C173.471 21.6686 175.128 21.2686 177.002 21.2686C178.808 21.2686 180.419 21.6571 181.836 22.4343C183.276 23.2114 184.385 24.32 185.162 25.76C185.962 27.1771 186.362 28.8114 186.362 30.6628ZM181.391 29.2914C181.368 28.0571 180.922 27.0743 180.054 26.3428C179.185 25.5886 178.122 25.2114 176.865 25.2114C175.676 25.2114 174.671 25.5771 173.848 26.3086C173.048 27.0171 172.556 28.0114 172.374 29.2914H181.391ZM197.134 40.88C195.58 40.88 194.186 40.6057 192.951 40.0571C191.717 39.4857 190.734 38.72 190.003 37.76C189.294 36.8 188.906 35.7371 188.837 34.5714H193.671C193.763 35.3028 194.117 35.9086 194.734 36.3886C195.374 36.8686 196.163 37.1086 197.1 37.1086C198.014 37.1086 198.723 36.9257 199.226 36.56C199.751 36.1943 200.014 35.7257 200.014 35.1543C200.014 34.5371 199.694 34.08 199.054 33.7828C198.437 33.4628 197.443 33.12 196.071 32.7543C194.654 32.4114 193.489 32.0571 192.574 31.6914C191.683 31.3257 190.906 30.7657 190.243 30.0114C189.603 29.2571 189.283 28.24 189.283 26.96C189.283 25.9086 189.58 24.9486 190.174 24.08C190.791 23.2114 191.66 22.5257 192.78 22.0228C193.923 21.52 195.26 21.2686 196.791 21.2686C199.054 21.2686 200.86 21.84 202.209 22.9828C203.557 24.1028 204.3 25.6228 204.437 27.5428H199.843C199.774 26.7886 199.454 26.1943 198.883 25.76C198.334 25.3028 197.591 25.0743 196.654 25.0743C195.786 25.0743 195.111 25.2343 194.631 25.5543C194.174 25.8743 193.946 26.32 193.946 26.8914C193.946 27.5314 194.266 28.0228 194.906 28.3657C195.546 28.6857 196.54 29.0171 197.889 29.36C199.26 29.7028 200.391 30.0571 201.283 30.4228C202.174 30.7886 202.94 31.36 203.58 32.1371C204.243 32.8914 204.586 33.8971 204.609 35.1543C204.609 36.2514 204.3 37.2343 203.683 38.1028C203.089 38.9714 202.22 39.6571 201.077 40.16C199.957 40.64 198.643 40.88 197.134 40.88Z" fill="#515839"/>
<path d="M131.425 12.6858C130.506 15.8306 130.666 18.5266 130.879 19.5986C130.892 19.6669 130.952 19.7143 131.022 19.7143H133.959C135.599 19.7143 137.497 19.3535 138.58 18.883C139.664 18.4125 141.1 17.447 142.307 15.9355C143.321 14.6659 143.822 11.5522 143.947 10.2674L144.41 6.1658C144.42 6.0774 144.351 6.00195 144.263 6.01406C143.58 6.10791 141.783 6.63977 140.369 6.63977C138.819 6.63977 137.388 7.04284 136.866 7.24437C135.45 7.69782 132.379 9.42094 131.425 12.6858Z" fill="#515839"/>
</svg>
