<svg width="66" height="66" viewBox="0 0 66 66" fill="none" xmlns="http://www.w3.org/2000/svg">
<rect x="1" y="1" width="64" height="64" rx="32" stroke="#515839" stroke-width="2" stroke-linecap="round" stroke-dasharray="10 10"/>
<path d="M20 21H21.848C22.528 21 23.1213 21.4573 23.2973 22.1133L23.808 24.0293M23.808 24.0293C31.2355 23.8212 38.6559 24.6469 45.856 26.4827C44.7573 29.7547 43.452 32.9333 41.9573 36H27M23.808 24.0293L27 36M27 36C25.9391 36 24.9217 36.4214 24.1716 37.1716C23.4214 37.9217 23 38.9391 23 40H44M25 44C25 44.2652 24.8946 44.5196 24.7071 44.7071C24.5196 44.8946 24.2652 45 24 45C23.7348 45 23.4804 44.8946 23.2929 44.7071C23.1054 44.5196 23 44.2652 23 44C23 43.7348 23.1054 43.4804 23.2929 43.2929C23.4804 43.1054 23.7348 43 24 43C24.2652 43 24.5196 43.1054 24.7071 43.2929C24.8946 43.4804 25 43.7348 25 44ZM42 44C42 44.2652 41.8946 44.5196 41.7071 44.7071C41.5196 44.8946 41.2652 45 41 45C40.7348 45 40.4804 44.8946 40.2929 44.7071C40.1054 44.5196 40 44.2652 40 44C40 43.7348 40.1054 43.4804 40.2929 43.2929C40.4804 43.1054 40.7348 43 41 43C41.2652 43 41.5196 43.1054 41.7071 43.2929C41.8946 43.4804 42 43.7348 42 44Z" stroke="#515839" stroke-width="2" stroke-linecap="round" stroke-linejoin="round"/>
</svg>
